<?xml version="1.0" standalone="no"?><!DOCTYPE svg PUBLIC "-//W3C//DTD SVG 1.1//EN" "http://www.w3.org/Graphics/SVG/1.1/DTD/svg11.dtd"><svg t="1717463456027" class="icon" viewBox="0 0 1024 1024" version="1.1" xmlns="http://www.w3.org/2000/svg" p-id="2702" xmlns:xlink="http://www.w3.org/1999/xlink" width="200" height="200"><path d="M654.494365 914.666896zM1010.716462 333.960071c10.847046-16.270569 7.265474-37.96466-7.265474-50.653657-16.270569-12.688997-37.96466-9.005095-50.653657 7.265474-1.841951 1.841951-202.512297 238.737336-441.249632 238.737336-231.471862 0-441.249633-238.737336-443.091584-240.476956-12.688997-14.428617-36.122709-16.270569-50.653657-3.581572-14.428617 12.688997-16.270569 36.122709-3.581572 50.653657 3.581572 5.423523 46.969755 54.235229 115.735931 108.470457l-92.199888 95.883791c-14.428617 14.428617-12.688997 37.96466 1.841951 50.653656 3.581572 7.265474 12.688997 10.847046 21.694091 10.847046 9.005095 0 18.11252-3.581572 25.275663-10.847046l99.465363-103.046934c46.969755 32.541137 103.046934 63.342654 164.547637 85.036745l-37.96466 128.117936c-5.423523 19.85214 5.423523 39.806611 25.275663 45.230134h10.847045c16.270569 0 30.699186-10.847046 34.383089-27.117614l37.96466-128.424928c28.959565 5.423523 59.658751 9.005095 90.460268 9.005095 30.699186 0 61.500703-3.581572 90.460268-9.005095l37.96466 126.582977c3.581572 16.270569 19.85214 27.117614 34.383088 27.117614 3.581572 0 7.265474 0 9.005094-1.841951 19.85214-5.423523 30.699186-25.275663 25.275663-45.230134l-37.964659-126.480646c61.500703-21.694091 117.577882-52.393277 164.547636-85.036745l97.623412 101.307314c7.265474 7.265474 16.270569 10.847046 25.275663 10.847045s18.11252-3.581572 25.275663-10.847045c14.428617-14.428617 14.428617-36.122709 1.841951-50.653657l-92.199889-95.883791c74.29203-54.235229 117.680213-106.628506 117.680213-106.628506z" fill="" p-id="2703"></path></svg>