<?xml version="1.0" standalone="no"?><!DOCTYPE svg PUBLIC "-//W3C//DTD SVG 1.1//EN" "http://www.w3.org/Graphics/SVG/1.1/DTD/svg11.dtd"><svg t="1717463461577" class="icon" viewBox="0 0 1024 1024" version="1.1" xmlns="http://www.w3.org/2000/svg" p-id="2854" xmlns:xlink="http://www.w3.org/1999/xlink" width="200" height="200"><path d="M1021.8 511.7c0 98.3-210.5 308-510.5 308C218.9 819.7 0.8 613.5 0.8 511.7 0.8 410 219.9 204.1 511.3 204.1c302.3 0 510.6 205.9 510.5 307.6zM511.7 260.2c-135.9 0-246 112.7-246 251.6s110.1 251.6 246 251.6 246.1-112.7 246.1-251.6c0-138.9-110.2-251.6-246.1-251.6z m-0.4 91c-86.5 0-156.7 71.7-156.7 160.2s70.1 160.2 156.7 160.2 156.6-71.7 156.6-160.2-70.1-160.2-156.6-160.2z" fill="#909399" p-id="2855"></path></svg>